<?xml version="1.0" standalone="no"?>
<!DOCTYPE svg PUBLIC "-//W3C//DTD SVG 1.1//EN" 
  "http://www.w3.org/Graphics/SVG/1.1/DTD/svg11.dtd">
<svg height="480px" width="480px" xmlns="http://www.w3.org/2000/svg"
  version="1.1" viewBox="0 0 136 136">
  <title>Paper Tape</title>
<!-- Hand tweaked from papertape_r32.svg which was generated by a lost Python/lxml script -->
<!-- Uses ITA2 Baudot-Murray code -->
  <g>
    <title>Background</title>
<!-- shade of beige formerly used in my web pages background -->
    <rect width="480" height="480" fill="#F5F5DC"/>
  </g>
  <g transform="translate(0, 44)">
    <title>Tape</title>
<!-- shade of yellow formerly used in my web pages h1 background -->
    <rect width="136" height="48" fill="#FFFF88"/>
    <g transform="translate(0, 0)">
      <title>Column -2</title>
      <circle r="2.0" transform="translate(0, 20)" fill="#000000"/>
    </g>
    <g transform="translate(8, 0)">
      <title>Column -1</title>
      <circle r="2.0" transform="translate(0, 20)" fill="#000000"/>
    </g>
    <g transform="translate(16, 0)">
      <title>Column 0</title>
      <circle r="2.0" transform="translate(0, 20)" fill="#000000"/>
    </g>
    <g transform="translate(24, 0)">
      <title>Column 1</title>
      <circle r="2.0" transform="translate(0, 20)" fill="#000000"/>
    </g>
    <g transform="translate(32, 0)">
      <title>Column 2</title>
      <text y="-3.0" x="0" fill="#FF0000" font-family="monospace" text-anchor="middle">P</text>
      <circle r="2.0" transform="translate(0, 20)" fill="#000000"/>
      <circle r="3.8" transform="translate(0, 12)" fill="#000000"/>
      <circle r="3.8" transform="translate(0, 28)" fill="#000000"/>
      <circle r="3.8" transform="translate(0, 44)" fill="#000000"/>
    </g>
    <g transform="translate(40, 0)">
      <title>Column 3</title>
      <text y="-3.0" x="0" fill="#FF0000" font-family="monospace" text-anchor="middle">E</text>
      <circle r="2.0" transform="translate(0, 20)" fill="#000000"/>
      <circle r="3.8" transform="translate(0, 4)" fill="#000000"/>
    </g>
    <g transform="translate(48, 0)">
      <title>Column 4</title>
      <text y="-3.0" x="0" fill="#FF0000" font-family="monospace" text-anchor="middle">T</text>
      <circle r="2.0" transform="translate(0, 20)" fill="#000000"/>
      <circle r="3.8" transform="translate(0, 44)" fill="#000000"/>
    </g>
    <g transform="translate(56, 0)">
      <title>Column 5</title>
      <text y="-3.0" x="0" fill="#FF0000" font-family="monospace" text-anchor="middle">E</text>
      <circle r="2.0" transform="translate(0, 20)" fill="#000000"/>
      <circle r="3.8" transform="translate(0, 4)" fill="#000000"/>
    </g>
    <g transform="translate(64, 0)">
      <title>Column 6</title>
      <circle r="2.0" transform="translate(0, 20)" fill="#000000"/>
      <circle r="3.8" transform="translate(0, 28)" fill="#000000"/>
    </g>
    <g transform="translate(72, 0)">
      <title>Column 7</title>
      <text y="-3.0" x="0" fill="#FF0000" font-family="monospace" text-anchor="middle">F</text>
      <circle r="2.0" transform="translate(0, 20)" fill="#000000"/>
      <circle r="3.8" transform="translate(0, 4)" fill="#000000"/>
      <circle r="3.8" transform="translate(0, 28)" fill="#000000"/>
      <circle r="3.8" transform="translate(0, 36)" fill="#000000"/>
    </g>
    <g transform="translate(80, 0)">
      <title>Column 8</title>
      <text y="-3.0" x="0" fill="#FF0000" font-family="monospace" text-anchor="middle">O</text>
      <circle r="2.0" transform="translate(0, 20)" fill="#000000"/>
      <circle r="3.8" transform="translate(0, 36)" fill="#000000"/>
      <circle r="3.8" transform="translate(0, 44)" fill="#000000"/>
    </g>
    <g transform="translate(88, 0)">
      <title>Column 9</title>
      <text y="-3.0" x="0" fill="#FF0000" font-family="monospace" text-anchor="middle">R</text>
      <circle r="2.0" transform="translate(0, 20)" fill="#000000"/>
      <circle r="3.8" transform="translate(0, 12)" fill="#000000"/>
      <circle r="3.8" transform="translate(0, 36)" fill="#000000"/>
    </g>
    <g transform="translate(96, 0)">
      <title>Column 10</title>
      <text y="-3.0" x="0" fill="#FF0000" font-family="monospace" text-anchor="middle">M</text>
      <circle r="2.0" transform="translate(0, 20)" fill="#000000"/>
      <circle r="3.8" transform="translate(0, 28)" fill="#000000"/>
      <circle r="3.8" transform="translate(0, 36)" fill="#000000"/>
      <circle r="3.8" transform="translate(0, 44)" fill="#000000"/>
    </g>
    <g transform="translate(104, 0)">
      <title>Column 11</title>
      <text y="-3.0" x="0" fill="#FF0000" font-family="monospace" text-anchor="middle">A</text>
      <circle r="2.0" transform="translate(0, 20)" fill="#000000"/>
      <circle r="3.8" transform="translate(0, 4)" fill="#000000"/>
      <circle r="3.8" transform="translate(0, 12)" fill="#000000"/>
    </g>
    <g transform="translate(112, 0)">
      <title>Column 12</title>
      <text y="-3.0" x="0" fill="#FF0000" font-family="monospace" text-anchor="middle">N</text>
      <circle r="2.0" transform="translate(0, 20)" fill="#000000"/>
      <circle r="3.8" transform="translate(0, 28)" fill="#000000"/>
      <circle r="3.8" transform="translate(0, 36)" fill="#000000"/>
    </g>
    <g transform="translate(120, 0)">
      <title>Column 13</title>
      <circle r="2.0" transform="translate(0, 20)" fill="#000000"/>
    </g>
    <g transform="translate(128, 0)">
      <title>Column 14</title>
      <circle r="2.0" transform="translate(0, 20)" fill="#000000"/>
    </g>
    <g transform="translate(136, 0)">
      <title>Column 15</title>
      <circle r="2.0" transform="translate(0, 20)" fill="#000000"/>
    </g>
  </g>
</svg>
